<svg width="512" height="512" viewBox="0 0 512 512" fill="none" xmlns="http://www.w3.org/2000/svg">
<g clip-path="url(#clip0_135_2)">
<rect width="512" height="512" fill="black"/>
<path d="M403.7 389.2C403.7 404.8 399.8 419.1 392 432.1C384.2 445.1 373.8 455.5 360.8 463.3C347.8 471.1 333.5 475 317.9 475H193.1C179.233 475 166.017 471.75 153.45 465.25L152.8 464.6C138.5 457.233 127.233 446.833 119 433.4C110.767 419.533 106.65 404.8 106.65 389.2V122.05C106.65 106.017 110.55 91.5 118.35 78.5C126.15 65.5 136.55 55.1 149.55 47.3C162.983 39.5 177.5 35.6 193.1 35.6H317.9C321.8 35.6 327 36.25 333.5 37.55C340.433 38.4167 347.583 40.8 354.95 44.7H355.6C370.333 52.0666 382.033 62.6833 390.7 76.55C399.367 89.9833 403.7 105.15 403.7 122.05V389.2ZM282.8 120.75C283.667 118.583 283.667 116.85 282.8 115.55C281.933 113.817 280.417 112.95 278.25 112.95H193.1C190.933 112.95 188.767 113.817 186.6 115.55C184.867 117.283 184 119.45 184 122.05V291.05C184 292.783 184.867 293.867 186.6 294.3C188.333 294.733 189.633 294.083 190.5 292.35L282.8 120.75ZM326.35 389.2V215.65C326.35 213.483 325.483 212.183 323.75 211.75C322.45 211.317 321.15 211.967 319.85 213.7L225.6 390.5C225.167 392.233 225.383 393.967 226.25 395.7C227.117 397.433 228.417 398.3 230.15 398.3H317.9C320.067 398.3 322.017 397.433 323.75 395.7C325.483 393.533 326.35 391.367 326.35 389.2Z" fill="white"/>
</g>
<defs>
<clipPath id="clip0_135_2">
<rect width="512" height="512" fill="white"/>
</clipPath>
</defs>
</svg>
