<svg width="200" height="200" viewBox="0 0 200 200" fill="none" xmlns="http://www.w3.org/2000/svg">
<g clip-path="url(#clip0_135_4)">
<rect width="200" height="200" fill="black"/>
<path d="M157.695 152.484C157.695 158.578 156.172 164.164 153.125 169.242C150.078 174.32 146.016 178.383 140.938 181.43C135.859 184.477 130.273 186 124.18 186H75.4297C70.013 186 64.8503 184.73 59.9414 182.191L59.6875 181.937C54.1016 179.06 49.7005 174.997 46.4844 169.75C43.2682 164.333 41.6602 158.578 41.6602 152.484V48.1289C41.6602 41.8659 43.1836 36.1953 46.2305 31.1172C49.2773 26.0391 53.3398 21.9766 58.418 18.9297C63.6654 15.8828 69.3359 14.3594 75.4297 14.3594H124.18C125.703 14.3594 127.734 14.6133 130.273 15.1211C132.982 15.4596 135.775 16.3906 138.652 17.914H138.906C144.661 20.7917 149.232 24.9388 152.617 30.3555C156.003 35.6029 157.695 41.5273 157.695 48.1289V152.484ZM110.469 47.6211C110.807 46.7747 110.807 46.0977 110.469 45.5898C110.13 44.9128 109.538 44.5742 108.691 44.5742H75.4297C74.5833 44.5742 73.737 44.9128 72.8906 45.5898C72.2135 46.2669 71.875 47.1133 71.875 48.1289V114.145C71.875 114.822 72.2135 115.245 72.8906 115.414C73.5677 115.583 74.0755 115.329 74.4141 114.652L110.469 47.6211ZM127.48 152.484V84.6914C127.48 83.845 127.142 83.3372 126.465 83.168C125.957 82.9987 125.449 83.2526 124.941 83.9297L88.125 152.992C87.9557 153.669 88.0404 154.346 88.3789 155.023C88.7175 155.701 89.2253 156.039 89.9023 156.039H124.18C125.026 156.039 125.788 155.701 126.465 155.023C127.142 154.177 127.48 153.331 127.48 152.484Z" fill="white"/>
</g>
<defs>
<clipPath id="clip0_135_4">
<rect width="200" height="200" fill="white"/>
</clipPath>
</defs>
</svg>
